<?xml version="1.0" encoding="UTF-8" standalone="no" ?>
<!DOCTYPE svg PUBLIC "-//W3C//DTD SVG 1.1//EN" "http://www.w3.org/Graphics/SVG/1.1/DTD/svg11.dtd">
<svg xmlns="http://www.w3.org/2000/svg" xmlns:xlink="http://www.w3.org/1999/xlink" version="1.1" width="1080" height="1080" viewBox="0 0 1080 1080" xml:space="preserve">
<desc>Created with Fabric.js 5.2.4</desc>
<defs>
</defs>
<rect x="0" y="0" width="100%" height="100%" fill="transparent"></rect>
<g transform="matrix(1 0 0 1 540 540)" id="4aa1e35b-6093-41f9-92c2-6ea2d401bf59"  >
<rect style="stroke: none; stroke-width: 1; stroke-dasharray: none; stroke-linecap: butt; stroke-dashoffset: 0; stroke-linejoin: miter; stroke-miterlimit: 4; fill: rgb(255,255,255); fill-rule: nonzero; opacity: 1; visibility: hidden;" vector-effect="non-scaling-stroke"  x="-540" y="-540" rx="0" ry="0" width="1080" height="1080" />
</g>
<g transform="matrix(1 0 0 1 540 540)" id="37966bca-d8df-4066-a2fe-9b212ac30f28"  >
</g>
<g transform="matrix(NaN NaN NaN NaN 0 0)"  >
<g style=""   >
</g>
</g>
<g transform="matrix(45 0 0 45 540 540)"  >
<path style="stroke: none; stroke-width: 1; stroke-dasharray: none; stroke-linecap: butt; stroke-dashoffset: 0; stroke-linejoin: miter; stroke-miterlimit: 4; fill: rgb(0,0,0); fill-rule: nonzero; opacity: 1;"  transform=" translate(-12, -12)" d="M 12 16.5 C 12.83 16.5 13.5 17.17 13.5 18 C 13.5 18.83 12.83 19.5 12 19.5 C 11.17 19.5 10.5 18.83 10.5 18 C 10.5 17.17 11.17 16.5 12 16.5 z M 10.5 12 C 10.5 12.83 11.17 13.5 12 13.5 C 12.83 13.5 13.5 12.83 13.5 12 C 13.5 11.17 12.83 10.5 12 10.5 C 11.17 10.5 10.5 11.17 10.5 12 z M 10.5 6 C 10.5 6.83 11.17 7.5 12 7.5 C 12.83 7.5 13.5 6.83 13.5 6 C 13.5 5.17 12.83 4.5 12 4.5 C 11.17 4.5 10.5 5.17 10.5 6 z" stroke-linecap="round" />
</g>
</svg>